<svg width="46" height="38" viewBox="0 0 46 38" fill="none" xmlns="http://www.w3.org/2000/svg">
    <path fill-rule="evenodd" clip-rule="evenodd"
        d="M10.9224 26.5771L9.53089 20.9961C9.14664 19.4549 9.36354 18.0036 10.1816 16.6421C10.9996 15.2807 12.1792 14.4078 13.7204 14.0236L35.3469 8.63147C36.888 8.24722 38.3393 8.46412 39.7008 9.28218C41.0623 10.1002 41.9351 11.2798 42.3194 12.821L45.4503 25.3783C45.8345 26.9194 45.6176 28.3708 44.7996 29.7322C43.9815 31.0937 42.8019 31.9666 41.2608 32.3508L19.6343 37.7429C18.0931 38.1271 16.6418 37.9103 15.2804 37.0922C13.9189 36.2741 13.046 35.0945 12.6618 33.5534L10.9224 26.5771Z"
        fill="#CEEAF7" />
    <g style="mix-blend-mode:multiply">
        <path fill-rule="evenodd" clip-rule="evenodd"
            d="M1.57571 18.7334L0.184209 13.1523C-0.200044 11.6112 0.0168559 10.1599 0.83491 8.79839C1.65296 7.43692 2.83257 6.56406 4.37373 6.17981L26.0002 0.787724C27.5413 0.403471 28.9927 0.620372 30.3541 1.43843C31.7156 2.25648 32.5885 3.43608 32.9727 4.97724L36.1036 17.5345C36.4879 19.0757 36.271 20.527 35.4529 21.8885C34.6348 23.25 33.4552 24.1228 31.9141 24.5071L10.2876 29.8992C8.74647 30.2834 7.29515 30.0665 5.93368 29.2485C4.57221 28.4304 3.69935 27.2508 3.3151 25.7096L1.57571 18.7334Z"
            fill="#F8BA90" />
    </g>
</svg>